<?xml version="1.0" encoding="UTF-8" standalone="no"?>
<svg
   viewBox="0 0 128 128"
   style="display:inline;enable-background:new"
   version="1.0"
   id="svg11300"
   height="128"
   width="128"
   xml:space="preserve"
   sodipodi:docname="AnyConnect.svg"
   inkscape:version="1.4.3 (0d15f75042, 2025-12-25)"
   xmlns:inkscape="http://www.inkscape.org/namespaces/inkscape"
   xmlns:sodipodi="http://sodipodi.sourceforge.net/DTD/sodipodi-0.dtd"
   xmlns:xlink="http://www.w3.org/1999/xlink"
   xmlns="http://www.w3.org/2000/svg"
   xmlns:svg="http://www.w3.org/2000/svg"
   xmlns:rdf="http://www.w3.org/1999/02/22-rdf-syntax-ns#"
   xmlns:cc="http://creativecommons.org/ns#"
   xmlns:dc="http://purl.org/dc/elements/1.1/"><sodipodi:namedview
     id="namedview1"
     pagecolor="#ffffff"
     bordercolor="#000000"
     borderopacity="0.25"
     inkscape:showpageshadow="2"
     inkscape:pageopacity="0.0"
     inkscape:pagecheckerboard="0"
     inkscape:deskcolor="#d1d1d1"
     showguides="true"
     inkscape:zoom="9.046875"
     inkscape:cx="64"
     inkscape:cy="64"
     inkscape:window-width="2560"
     inkscape:window-height="1371"
     inkscape:window-x="0"
     inkscape:window-y="0"
     inkscape:window-maximized="1"
     inkscape:current-layer="svg11300"><sodipodi:guide
       position="63.97323,41.826425"
       orientation="1,0"
       id="guide16"
       inkscape:locked="false" /></sodipodi:namedview><title
     id="title4162">Adwaita Icon Template</title><defs
     id="defs3"><linearGradient
       id="linearGradient974"><stop
         style="stop-color:#00357a;stop-opacity:1;"
         offset="0"
         id="stop962" /><stop
         id="stop964"
         offset="0.04166667"
         style="stop-color:#0061e0;stop-opacity:1;" /><stop
         style="stop-color:#00357a;stop-opacity:1;"
         offset="0.08333334"
         id="stop966" /><stop
         id="stop968"
         offset="0.91666669"
         style="stop-color:#00357a;stop-opacity:1;" /><stop
         style="stop-color:#0061e0;stop-opacity:1;"
         offset="0.95833331"
         id="stop970" /><stop
         style="stop-color:#00357a;stop-opacity:1;"
         offset="1"
         id="stop972" /></linearGradient><linearGradient
       y2="44"
       x2="464"
       y1="44"
       x1="48"
       gradientTransform="matrix(0.25,0,0,0.25,0,53)"
       gradientUnits="userSpaceOnUse"
       id="linearGradient1747"
       xlink:href="#linearGradient974" /><linearGradient
       id="linearGradient26"
       spreadMethod="pad"
       gradientTransform="matrix(-89.129422,-89.129422,89.129422,-89.129422,-76.387771,103.73604)"
       gradientUnits="userSpaceOnUse"
       y2="0"
       x2="1"
       y1="0"
       x1="0">
      <stop
   id="stop22"
   offset="0"
   style="stop-opacity:1;stop-color:#004caf" />
      <stop
   id="stop24"
   offset="1"
   style="stop-opacity:1;stop-color:#1f95f8" />
    </linearGradient><linearGradient
       xlink:href="#linearGradient26"
       id="linearGradient2"
       x1="116"
       y1="112"
       x2="12"
       y2="12"
       gradientUnits="userSpaceOnUse" /></defs><metadata
     id="metadata4"><rdf:RDF><cc:Work
         rdf:about=""><dc:format>image/svg+xml</dc:format><dc:type
           rdf:resource="http://purl.org/dc/dcmitype/StillImage" /><dc:creator><cc:Agent><dc:title>GNOME Design Team</dc:title></cc:Agent></dc:creator><dc:source /><cc:license
           rdf:resource="http://creativecommons.org/licenses/by-sa/4.0/" /><dc:title>Adwaita Icon Template</dc:title><dc:subject><rdf:Bag /></dc:subject><dc:date /><dc:rights><cc:Agent><dc:title /></cc:Agent></dc:rights><dc:publisher><cc:Agent><dc:title /></cc:Agent></dc:publisher><dc:identifier /><dc:relation /><dc:language /><dc:coverage /><dc:description /><dc:contributor><cc:Agent><dc:title /></cc:Agent></dc:contributor></cc:Work><cc:License
         rdf:about="http://creativecommons.org/licenses/by-sa/4.0/"><cc:permits
           rdf:resource="http://creativecommons.org/ns#Reproduction" /><cc:permits
           rdf:resource="http://creativecommons.org/ns#Distribution" /><cc:requires
           rdf:resource="http://creativecommons.org/ns#Notice" /><cc:requires
           rdf:resource="http://creativecommons.org/ns#Attribution" /><cc:permits
           rdf:resource="http://creativecommons.org/ns#DerivativeWorks" /><cc:requires
           rdf:resource="http://creativecommons.org/ns#ShareAlike" /></cc:License></rdf:RDF></metadata><rect
     ry="8"
     rx="8"
     y="32"
     x="12"
     height="83.999992"
     width="104"
     id="rect1709"
     style="display:inline;fill:url(#linearGradient1747);fill-opacity:1;stroke:none;stroke-width:0.25;stroke-linecap:butt;stroke-linejoin:miter;stroke-miterlimit:4;stroke-dasharray:none;stroke-dashoffset:0;stroke-opacity:1;marker:none;marker-start:none;marker-mid:none;marker-end:none;paint-order:normal;enable-background:new" /><rect
     style="display:inline;fill:url(#linearGradient2);fill-opacity:1;stroke:none;stroke-width:0.25;stroke-linecap:butt;stroke-linejoin:miter;stroke-miterlimit:4;stroke-dasharray:none;stroke-dashoffset:0;stroke-opacity:1;marker:none;marker-start:none;marker-mid:none;marker-end:none;paint-order:normal;enable-background:new"
     id="rect1711"
     width="104"
     height="100"
     x="12"
     y="12"
     rx="8"
     ry="8" /><g
     id="g2"
     transform="matrix(0.70961887,0,0,0.75193475,18.758019,15.819481)"><path
       d="m 64.806674,20.103627 c -23.873904,0 -43.222908,17.737797 -43.222908,39.623698 v 32.194256 c 0,6.810328 6.078222,12.382409 13.507159,12.382409 3.714469,0 7.091256,-1.39301 9.45501,-3.71472 2.363754,2.32171 5.740546,3.71472 9.455015,3.71472 3.714468,0 7.091256,-1.39301 9.455009,-3.71472 2.363753,2.32171 5.740541,3.71472 9.455008,3.71472 3.714471,0 7.091261,-1.39301 9.455016,-3.71472 2.363755,2.32171 5.740544,3.71472 9.455,3.71472 7.428944,0 13.507167,-5.572081 13.507167,-12.382409 V 59.727325 c 0,-21.885901 -19.349005,-39.623698 -40.521476,-39.623698 z"
       fill="#ffffff"
       id="path1"
       style="stroke-width:0.323315" /></g><g
     id="g1"
     style="display:inline;enable-background:new"
     transform="matrix(0.76613954,0,0,0.77623519,14.88053,2.4546263)"><path
       id="path16-0-2"
       style="stroke-width:1.77471;stroke-linecap:round;stroke-linejoin:round"
       d="M 51.04578,78.755856 A 6.9856303,6.895866 0 0 1 44.06015,85.65173 6.9856303,6.895866 0 0 1 37.07452,78.755856 6.9856303,6.895866 0 0 1 44.06015,71.86 a 6.9856303,6.895866 0 0 1 6.98563,6.895856 z" /><path
       id="path17-9-9"
       style="fill:#ffffff;stroke-width:2.91355;stroke-linecap:round;stroke-linejoin:round"
       d="m 44.36544,76.264051 a 2.4414813,2.491802 0 0 1 -2.44149,2.491805 2.4414813,2.491802 0 0 1 -2.44148,-2.491805 2.4414813,2.491802 0 0 1 2.44148,-2.491806 2.4414813,2.491802 0 0 1 2.44149,2.491806 z" /><path
       id="path18-3-3"
       style="fill:#ffffff;stroke-width:1.77471;stroke-linecap:round;stroke-linejoin:round"
       d="m 48.26856,81.555005 a 1.1090681,1.1486377 0 0 1 -1.10907,1.148632 1.1090681,1.1486377 0 0 1 -1.10906,-1.148632 1.1090681,1.1486377 0 0 1 1.10906,-1.148649 1.1090681,1.1486377 0 0 1 1.10907,1.148649 z" /><path
       id="ellipse19-06-1"
       style="stroke-width:1.77471;stroke-linecap:round;stroke-linejoin:round"
       d="m 90.925476,78.755856 a 6.9856303,6.895866 0 0 1 -6.985629,6.895874 6.9856303,6.895866 0 0 1 -6.98563,-6.895874 6.9856303,6.895866 0 0 1 6.98563,-6.895856 6.9856303,6.895866 0 0 1 6.985629,6.895856 z" /><path
       id="ellipse20-2-9"
       style="fill:#ffffff;stroke-width:2.91355;stroke-linecap:round;stroke-linejoin:round"
       d="m 84.245136,76.264051 a 2.4414813,2.491802 0 0 1 -2.441481,2.491805 2.4414813,2.491802 0 0 1 -2.441481,-2.491805 2.4414813,2.491802 0 0 1 2.441481,-2.491806 2.4414813,2.491802 0 0 1 2.441481,2.491806 z" /><path
       id="ellipse21-6-4"
       style="fill:#ffffff;stroke-width:1.77471;stroke-linecap:round;stroke-linejoin:round"
       d="m 88.148262,81.555005 a 1.1090681,1.1486377 0 0 1 -1.109067,1.148632 1.1090681,1.1486377 0 0 1 -1.10907,-1.148632 1.1090681,1.1486377 0 0 1 1.10907,-1.148649 1.1090681,1.1486377 0 0 1 1.109067,1.148649 z" /><path
       style="stroke-linecap:round;stroke-linejoin:round"
       d="m 54.171875,80.828125 a 1.7747051,1.7747051 0 0 0 -1.146484,0.728516 1.7747051,1.7747051 0 0 0 0.433593,2.472656 c 6.994366,4.907033 14.428759,4.447232 21.048828,0.02344 a 1.7747051,1.7747051 0 0 0 0.490235,-2.46289 1.7747051,1.7747051 0 0 0 -2.460938,-0.488282 c -5.784532,3.865456 -11.016969,4.247772 -17.041015,0.02148 a 1.7747051,1.7747051 0 0 0 -1.324219,-0.294922 z"
       id="path21-1-7" /><path
       id="path22-8-8"
       style="fill:#f66151;fill-opacity:1;stroke-width:3.54941;stroke-linecap:round;stroke-linejoin:round"
       d="m 39.03246,87.553009 a 4.6499906,2.588181 0 0 1 -4.64999,2.588194 4.6499906,2.588181 0 0 1 -4.64999,-2.588194 4.6499906,2.588181 0 0 1 4.64999,-2.588176 4.6499906,2.588181 0 0 1 4.64999,2.588176 z" /><path
       id="ellipse22-7-4"
       style="fill:#f66151;fill-opacity:1;stroke-width:3.54941;stroke-linecap:round;stroke-linejoin:round"
       d="m 98.267511,87.553009 a 4.6499906,2.588181 0 0 1 -4.649982,2.588194 4.6499906,2.588181 0 0 1 -4.65,-2.588194 4.6499906,2.588181 0 0 1 4.65,-2.588176 4.6499906,2.588181 0 0 1 4.649982,2.588176 z" /></g></svg>
